<?xml version="1.0" encoding="utf-8"?>
<!-- Generator: Adobe Illustrator 27.5.0, SVG Export Plug-In . SVG Version: 6.00 Build 0)  -->
<svg version="1.1" id="Layer_1" xmlns="http://www.w3.org/2000/svg" xmlns:xlink="http://www.w3.org/1999/xlink" x="0px" y="0px"
	 viewBox="0 0 5000 2916" style="enable-background:new 0 0 5000 2916;" xml:space="preserve">
<g>
	<rect style="fill-rule:evenodd;clip-rule:evenodd;fill:#FFFFFF;" width="5000" height="2916"/>
	<g>
		<defs>
			<path id="SVGID_1_" d="M4084.332,2148.461c17.938,13.92,34.424,29.433,49.526,46.445c28.486,3.38,55.486,8.242,81.089,14.466
				C4177.708,2182.592,4133.581,2162.833,4084.332,2148.461 M3991.884,2129.524c16.379,17.821,31.112,37.578,44.542,58.852
				c31.635,0.421,61.756,2.374,90.599,5.594c-16.139-17.742-33.834-33.797-53.116-48.109
				C4047.99,2138.914,4020.595,2133.508,3991.884,2129.524z M3936.002,2078.699c18.578,13.872,35.698,29.465,51.708,46.376
				c27.435,3.56,53.654,8.425,78.566,14.659C4028.435,2113.192,3984.63,2093.201,3936.002,2078.699z M3896.322,2121.683
				c14.407,21.421,27.516,44.5,39.054,69.544c33.056-2.166,65.162-3.347,95.846-3.088c-13.876-21.573-29.14-41.541-46.072-59.537
				C3956.823,2124.915,3927.202,2122.61,3896.322,2121.683z M3846.126,2059.635c17.153,17.723,32.942,37.199,47.45,58.31
				c30.338,0.754,59.489,2.814,87.387,6.203c-17.083-17.619-35.41-33.764-55.333-48.017
				C3900.366,2069.218,3873.823,2063.761,3846.126,2059.635z M3787.881,2008.977c19.153,13.89,37.063,29.394,53.888,46.3
				c26.445,3.684,51.796,8.636,76.03,14.85C3879.302,2043.942,3835.963,2023.534,3787.881,2008.977z M3798.401,2122.79
				c12.586,24.442,23.93,50.609,33.893,78.67c33.943-4.299,67.012-7.664,98.948-9.86c-11.858-25.255-25.231-48.606-40.025-70.151
				C3861.384,2120.685,3830.442,2121.122,3798.401,2122.79z M3753.811,2051.194c15.38,21.101,29.722,43.665,42.601,68.25
				c31.75-1.755,62.451-2.344,92.051-1.737c-14.989-21.375-31.261-41.12-48.995-58.986
				C3812.052,2054.891,3783.476,2052.401,3753.811,2051.194z M3700.592,1989.78c17.912,17.63,34.735,36.814,50.301,57.757
				c29.138,1.019,57.218,3.294,84.206,6.826c-17.94-17.582-37.017-33.696-57.537-47.921
				C3752.958,1999.582,3727.303,1994.016,3700.592,1989.78z M3641.044,1940.035c19.337,13.717,37.684,28.861,55.01,45.47
				c25.465,3.784,49.9,8.857,73.459,15.029C3730.799,1974.939,3688.013,1954.666,3641.044,1940.035z M3699.333,2131.151
				c11.353,26.964,21.67,55.521,30.834,85.813c33.735-5.888,66.671-10.908,98.756-15.027
				c-10.181-28.256-21.864-54.454-34.719-79.026C3763.533,2124.595,3731.875,2127.371,3699.333,2131.151z M3659.88,2051.359
				c13.856,23.877,26.661,49.375,38.289,76.667c32.216-3.814,63.632-6.689,94.04-8.461c-13.15-24.719-27.745-47.443-43.449-68.607
				C3720.113,2049.935,3690.477,2050.069,3659.88,2051.359z M3611.451,1980.734c16.447,20.856,31.997,43.121,46.269,67.357
				c30.314-1.391,59.697-1.656,88.115-0.789c-16.049-21.223-33.362-40.663-51.859-58.426
				C3667.449,1984.921,3639.949,1982.196,3611.451,1980.734z M3555.283,1919.97c18.688,17.485,36.444,36.448,53.075,57.175
				c27.97,1.268,54.968,3.789,81.065,7.445c-18.775-17.568-38.644-33.573-59.743-47.805
				C3605.811,1929.913,3580.991,1924.33,3555.283,1919.97z M3495.691,1871.912c19.114,13.295,37.413,27.901,54.87,43.85
				c24.457,3.92,48.022,9.07,70.862,15.207C3582.993,1906.187,3540.985,1886.589,3495.691,1871.912z M3602.531,2144.965
				c10.712,28.798,20.535,59.108,29.416,91.006c32.404-6.895,64.069-12.971,95.166-18.432c-9.246-30.41-19.643-59.086-31.138-86.082
				C3665.63,2135.047,3634.363,2139.666,3602.531,2144.965z M3565.569,2058.479c12.916,26.258,24.921,54.09,35.977,83.535
				c31.833-5.348,62.967-9.86,93.327-13.514c-11.849-27.505-25.017-53.003-39.131-77.019
				C3626.519,2052.804,3596.428,2055.163,3565.569,2058.479z M3521.41,1979.943c15.216,23.513,29.492,48.674,42.81,75.484
				c30.559-3.352,60.388-5.8,89.353-7.217c-14.543-24.38-30.356-46.793-47.122-67.716
				C3578.949,1979.222,3550.615,1979.015,3521.41,1979.943z M3469.255,1910.297c17.499,20.578,34.193,42.586,49.824,66.442
				c28.926-1.034,56.997-0.948,84.274,0.165c-17.127-21.004-35.386-40.221-54.655-57.839
				C3523.058,1914.967,3496.581,1912.037,3469.255,1910.297z M3410.223,1850.202c19.451,17.315,38.082,36.1,55.768,56.574
				c26.803,1.554,52.775,4.273,77.971,8.08c-19.624-17.521-40.237-33.46-61.916-47.682
				C3458.971,1860.209,3434.921,1854.704,3410.223,1850.202z M3350.817,1803.871c18.839,12.818,36.973,26.936,54.483,42.181
				c23.454,4.045,46.138,9.276,68.241,15.375C3435.513,1837.511,3394.472,1818.5,3350.817,1803.871z M3510.16,2162.417
				c10.531,30.065,20.332,61.547,29.374,94.47c30.443-7.41,60.171-14.002,89.609-20.281c-8.95-31.976-18.847-62.351-29.636-91.201
				C3570.381,2150.305,3540.412,2156.18,3510.16,2162.417z M3474.065,2070.779c12.505,28.107,24.234,57.74,35.205,88.832
				c30.264-6.277,60.152-12.081,89.287-17.031c-11.148-29.553-23.246-57.5-36.296-83.794
				C3533.55,2061.93,3504.073,2066.013,3474.065,2070.779z M3431.707,1985.799c14.53,25.79,28.237,53.207,41.193,82.103
				c29.934-4.807,59.358-8.963,88.013-12.17c-13.517-26.972-28.137-52.059-43.589-75.672
				C3489.493,1981.033,3460.959,1982.937,3431.707,1985.799z M3382.996,1908.536c16.539,23.133,32.242,47.956,47.189,74.275
				c28.957-2.907,57.222-4.887,84.801-5.957c-15.911-24.001-32.879-46.148-50.696-66.794
				C3437.918,1908.52,3410.833,1907.987,3382.996,1908.536z M3327.237,1839.895c18.515,20.278,36.311,42.044,53.263,65.5
				c27.559-0.648,54.391-0.242,80.525,1.139c-18.185-20.75-37.341-39.787-57.371-57.236
				C3378.899,1845.055,3353.417,1841.924,3327.237,1839.895z M3266.298,1781.186c19.886,16.921,39.052,35.331,57.491,55.236
				c25.662,1.841,50.628,4.769,74.928,8.722c-20.015-17.053-40.852-32.616-62.57-46.562
				C3313.608,1791.52,3290.226,1785.881,3266.298,1781.186z M3206.472,1735.917c18.491,12.313,36.348,25.961,53.807,40.455
				c22.468,4.148,44.288,9.416,65.602,15.543C3288.381,1768.937,3248.487,1750.395,3206.472,1735.917z M3423.883,2181.82
				c10.673,31.118,20.826,63.404,30.281,97.234c27.82-7.456,55.633-14.88,82.744-21.52c-9.079-32.997-18.948-64.473-29.531-94.583
				C3480.055,2168.625,3452.05,2175.121,3423.883,2181.82z M3387.321,2086.474c12.459,29.635,24.518,60.197,35.723,92.666
				c28.132-6.721,56.151-13.29,83.446-18.998c-11.021-31.155-22.831-60.79-35.402-88.927
				C3443.703,2075.614,3415.689,2080.809,3387.321,2086.474z M3345.321,1996.56c14.241,27.693,27.984,56.549,40.941,87.182
				c28.322-5.695,56.317-10.962,83.658-15.406c-13.039-28.957-26.836-56.427-41.477-82.233
				C3401.306,1988.813,3373.589,1992.31,3345.321,1996.56z M3297.753,1913.107c16.034,25.422,31.506,52.18,46.23,80.637
				c28.191-4.294,55.847-7.853,82.923-10.629c-15.153-26.489-31.191-51.224-47.97-74.465
				C3352.474,1909.262,3325.44,1910.707,3297.753,1913.107z M3244.644,1837.14c17.781,22.828,34.949,47.121,51.416,73.041
				c27.398-2.44,54.174-3.974,80.385-4.672c-17.232-23.609-35.314-45.498-54.148-65.854
				C3297.03,1837.844,3271.156,1836.983,3244.644,1837.14z M3185.391,1769.518c19.473,20.042,38.405,41.405,56.588,64.532
				c26.232-0.262,51.839,0.475,76.867,2.13c-19.223-20.484-39.238-39.343-60.014-56.613
				C3234.985,1775.117,3210.471,1771.813,3185.391,1769.518z M3123.525,1712.823c19.969,16.391,39.4,34.125,58.245,53.273
				c24.558,2.097,48.506,5.279,71.927,9.365c-20.048-16.322-40.725-31.326-62.113-44.82
				C3169.492,1723.546,3146.751,1717.705,3123.525,1712.823z M3062.702,1668.068c18.476,12.102,36.449,25.487,54.111,39.643
				c20.931,4.144,41.612,8.804,61.64,14.715C3141.636,1700.449,3103.031,1682.349,3062.702,1668.068z M3344.372,2201.844
				c11.2,31.756,21.956,64.7,32.26,98.842c25.216-7.25,50.276-14.333,74.97-20.966c-9.473-33.838-19.621-66.188-30.314-97.298
				C3395.998,2188.462,3370.296,2195.011,3344.372,2201.844z M3306.776,2103.937c12.698,30.466,24.901,62.276,36.621,95.37
				c25.955-6.866,51.721-13.49,77.047-19.567c-11.246-32.51-23.355-63.074-35.867-92.732
				C3359.033,2092.139,3333.067,2097.825,3306.776,2103.937z M3263.985,2010.475c14.324,29.046,28.296,59.088,41.615,90.889
				c26.318-6.152,52.343-11.914,77.921-17.092c-13.019-30.681-26.833-59.557-41.147-87.275
				C3316.664,2000.895,3290.556,2005.364,3263.985,2010.475z M3216.284,1922.296c15.948,27.231,31.564,55.414,46.474,85.509
				c26.523-5.144,52.607-9.677,78.278-13.623c-14.82-28.515-30.38-55.335-46.523-80.773
				C3268.902,1915.678,3242.871,1918.571,3216.284,1922.296z M3163.699,1840.403c17.507,25.016,34.621,51.183,51.09,79.145
				c26.473-3.76,52.417-6.729,77.936-9.055c-16.668-26.068-34.116-50.322-52.122-73.239
				C3215.469,1837.493,3189.872,1838.474,3163.699,1840.403z M3106.344,1765.755c18.989,22.492,37.542,46.292,55.493,71.776
				c25.889-1.978,51.216-3.037,76.102-3.37c-18.471-23.281-37.699-44.766-57.489-64.887
				C3156.255,1767.205,3131.579,1765.961,3106.344,1765.755z M3045.029,1700.325c19.956,19.42,39.503,40.1,58.492,62.386
				c24.958,0.102,49.356,1.224,73.304,3.136c-19.761-19.836-40.189-38.063-61.172-54.898
				C3092.643,1706.345,3069.049,1702.899,3045.029,1700.325z M2981.242,1644.541c20.194,15.994,39.988,33.25,59.336,51.817
				c23.194,2.324,46.081,5.29,68.352,9.471c-19.958-15.634-40.432-29.985-61.411-43.049
				C3025.891,1655.652,3003.782,1649.601,2981.242,1644.541z M2919.523,1600.332c18.592,11.965,36.777,25.228,54.743,39.135
				c20.004,4.25,39.824,8.928,59.124,14.794C2996.816,1632.687,2958.844,1614.697,2919.523,1600.332z M3272.822,2221.169
				c12.155,32.007,23.941,65.235,35.449,99.37c22.297-6.77,44.037-12.864,65.936-19.15c-10.334-34.16-21.121-67.115-32.36-98.878
				C3318.992,2208.532,3296.155,2214.534,3272.822,2221.169z M3232.786,2121.921c13.393,31.045,26.377,63.453,39.081,96.811
				c23.312-6.647,46.173-12.717,69.01-18.757c-11.762-33.109-24.018-64.918-36.759-95.414
				C3280.568,2110.046,3256.913,2115.665,3232.786,2121.921z M3188.661,2026.033c14.716,29.825,29.016,61.101,43.003,93.42
				c24.092-6.274,47.749-11.954,71.277-17.462c-13.345-31.801-27.31-61.947-41.669-90.98
				C3237.34,2015.624,3213.258,2020.462,3188.661,2026.033z M3140.136,1934.41c16.117,28.356,31.84,58.108,47.196,89.111
				c24.619-5.607,48.757-10.525,72.716-15.184c-14.978-30.14-30.66-58.349-46.682-85.597
				C3189.269,1926.145,3164.976,1929.852,3140.136,1934.41z M3086.963,1848.008c17.577,26.657,34.859,54.393,51.66,83.819
				c24.833-4.598,49.148-8.389,73.245-11.838c-16.565-28.017-33.771-54.25-51.389-79.279
				C3136.336,1842.533,3111.929,1844.799,3086.963,1848.008z M3029.667,1767.866c18.904,24.5,37.513,50.101,55.63,77.443
				c24.831-3.242,49.12-5.575,73.142-7.457c-18.148-25.605-36.927-49.426-56.129-71.987
				C3078.515,1765.765,3054.323,1766.385,3029.667,1767.866z M2968.929,1695.417c19.875,21.832,39.461,44.809,58.58,69.447
				c24.453-1.543,48.368-2.065,71.972-2.044c-19.458-22.657-39.514-43.593-59.985-63.257
				C3016.429,1697.242,2992.842,1695.99,2968.929,1695.417z M2905.148,1631.275c20.555,18.925,40.784,39.147,60.635,60.766
				c23.438,0.455,46.623,1.442,69.255,3.55c-20.124-19.06-40.751-36.636-61.791-52.943
				C2950.965,1637.885,2928.248,1634.134,2905.148,1631.275z M2839.483,1576.349c20.647,15.746,40.974,32.799,61.002,51
				c22.269,2.595,44.249,5.881,65.779,10.223c-20.352-15.421-41.114-29.589-62.255-42.557
				C2882.84,1587.862,2861.343,1581.608,2839.483,1576.349z M2776.367,1532.505c18.867,11.882,37.435,25.044,55.847,38.794
				c19.302,4.406,38.42,9.322,57.187,15.215C2852.756,1565.156,2815.1,1547.019,2776.367,1532.505z M3210.674,2239.627
				c13.36,32.114,26.486,65.25,39.406,99.309c18.62-5.885,37.454-12.033,55.864-17.658c-11.53-34.153-23.338-67.388-35.521-99.398
				C3250.726,2227.518,3230.663,2233.615,3210.674,2239.627z M3167.269,2139.745c14.392,31.329,28.476,64.04,42.406,97.44
				c20.019-6.034,40.063-12.092,59.793-17.745c-12.733-33.368-25.751-65.792-39.179-96.841
				C3209.498,2128.016,3188.436,2133.806,3167.269,2139.745z M3120.467,2042.426c15.494,30.354,30.646,62.257,45.65,94.843
				c21.2-5.972,42.229-11.695,63.044-17.135c-14.025-32.342-28.375-63.626-43.138-93.471
				C3164.401,2031.583,3142.558,2036.819,3120.467,2042.426z M3070.061,1948.501c16.641,29.127,32.938,59.89,49.072,91.399
				c22.12-5.64,43.912-10.799,65.563-15.746c-15.4-31.016-31.156-60.83-47.319-89.19
				C3115.202,1939.062,3092.78,1943.536,3070.061,1948.501z M3015.933,1858.873c17.811,27.621,35.279,56.889,52.565,87.034
				c22.748-5.002,45.102-9.384,67.296-13.511c-16.84-29.417-34.118-57.31-51.746-83.944
				C3061.664,1851.385,3038.923,1854.905,3015.933,1858.873z M2957.893,1774.508c19,25.885,37.719,53.158,56.184,81.677
				c23.052-4.025,45.753-7.439,68.192-10.413c-18.235-27.418-36.921-53.234-55.948-77.776
				C3003.9,1769.434,2980.953,1771.86,2957.893,1774.508z M2896.353,1696.325c20.091,23.829,39.953,48.815,59.513,75.334
				c23.008-2.702,45.795-4.967,68.168-6.463c-19.35-24.802-39.129-48.06-59.255-69.988
				C2942.351,1694.776,2919.466,1695.307,2896.353,1696.325z M2831.886,1625.263c20.931,21.398,41.652,43.943,62.069,68.026
				c22.758-1.077,45.346-1.777,67.453-1.467c-20.247-21.863-40.889-42.245-61.863-61.32
				C2877.348,1627.898,2854.776,1626.205,2831.886,1625.263z M2765.229,1562.232c21.423,18.656,42.635,38.464,63.577,59.714
				c22.321,0.815,44.389,2.249,66.07,4.627c-20.837-18.709-42.026-36.06-63.527-52.135
				C2809.628,1569.465,2787.583,1565.4,2765.229,1562.232z M2697.633,1508.098c21.259,15.589,42.321,32.344,63.162,50.296
				c21.366,2.885,42.483,6.476,63.273,10.988c-20.712-15.157-41.711-29.206-62.989-42.037
				C2740.172,1520.098,2719.053,1513.568,2697.633,1508.098z M2631.981,1464.166c19.726,12.08,39.304,25.068,58.713,39.038
				c18.611,4.543,37.039,9.731,55.259,15.639C2708.697,1497.445,2670.762,1478.896,2631.981,1464.166z M3158.109,2255.561
				c14.497,32.03,28.893,64.824,43.093,98.829c15.706-5.121,31.094-9.844,46.623-14.737c-12.94-34.086-26.09-67.21-39.472-99.335
				C3191.652,2245.333,3175.026,2250.252,3158.109,2255.561z M3110.791,2156.107c15.542,31.629,31.049,63.504,46.295,97.11
				c16.906-5.316,33.572-10.314,50.268-15.339c-13.955-33.429-28.071-66.134-42.493-97.481
				C3146.983,2145.432,3128.929,2150.712,3110.791,2156.107z M3060.652,2058.464c16.473,30.791,32.819,62.424,48.993,95.274
				c18.119-5.404,36.199-10.765,54.067-15.817c-15.041-32.612-30.235-64.519-45.771-94.888
				C3099.055,2047.863,3079.849,2053.175,3060.652,2058.464z M3007.483,1963.335c17.446,29.779,34.728,60.748,51.868,92.72
				c19.167-5.305,38.39-10.698,57.255-15.548c-16.185-31.552-32.537-62.312-49.234-91.467
				C3047.661,1953.394,3027.557,1958.386,3007.483,1963.335z M2951.155,1871.511c18.448,28.561,36.713,58.484,54.846,89.358
				c20.034-4.959,40.139-10.04,59.811-14.42c-17.352-30.199-34.903-59.466-52.788-87.131
				C2992.68,1862.891,2971.922,1867.184,2951.155,1871.511z M2891.629,1783.862c19.44,27.078,38.694,55.598,57.81,85.11
				c20.706-4.345,41.444-8.743,61.734-12.344c-18.513-28.518-37.251-55.959-56.302-81.831
				C2934.085,1777.252,2912.903,1780.465,2891.629,1783.862z M2828.893,1701.325c20.402,25.344,40.648,52.021,60.733,79.902
				c21.18-3.428,42.308-6.755,63.018-9.261c-19.63-26.528-39.529-51.735-59.69-75.55
				C2871.894,1697.419,2850.484,1699.174,2828.893,1701.325z M2763.119,1624.803c21.307,23.381,42.509,47.752,63.505,73.734
				c21.447-2.194,42.751-4.072,63.689-5.149c-20.544-24.115-41.337-46.933-62.399-68.326
				C2806.6,1624.274,2784.988,1624.216,2763.119,1624.803z M2695.121,1555.16c21.932,21.047,43.779,43.012,65.423,66.652
				c21.528-0.65,42.837-0.757,63.837-0.091c-21.219-21.38-42.677-41.496-64.386-60.215
				C2738.637,1558.61,2717.014,1556.485,2695.121,1555.16z M2625.623,1493.238c22.203,18.41,44.323,37.726,66.266,58.636
				c21.313,1.189,42.393,3.07,63.206,5.731c-21.495-18.316-43.202-35.488-65.14-51.298
				C2668.744,1501.12,2647.313,1496.704,2625.623,1493.238z M2555.811,1439.813c21.943,15.53,43.827,31.822,65.547,49.667
				c20.553,3.149,40.882,7.1,61.013,11.785c-21.044-14.867-42.236-28.843-63.647-41.499
				C2597.917,1452.346,2576.987,1445.498,2555.811,1439.813z M2490.152,1397.22c19.906,11.97,39.796,24.194,59.542,37.967
				c17.931,4.641,35.686,10.144,53.352,16.06C2565.876,1430.263,2528.275,1411.96,2490.152,1397.22z M3114.64,2269.669
				c15.806,31.695,31.525,64.633,47.218,97.834c12.359-4.123,24.814-8.374,37.091-12.398c-14.199-33.99-28.589-66.808-43.088-98.815
				C3142.235,2260.594,3128.374,2265.223,3114.64,2269.669z M3063.87,2170.396c16.613,31.154,33.115,63.961,49.596,96.973
				c13.793-4.477,27.688-9.093,41.374-13.422c-15.269-33.627-30.8-65.494-46.357-97.133
				C3093.69,2161.226,3078.823,2165.747,3063.87,2170.396z M3009.547,2072.696c17.752,31.052,35.491,62.345,53.112,95.338
				c14.987-4.669,29.855-9.165,44.673-13.593c-16.198-32.873-32.585-64.507-49.083-95.31
				C3042.062,2063.585,3025.974,2067.882,3009.547,2072.696z M2952.821,1977.066c18.52,30.113,36.986,61.094,55.379,93.22
				c16.454-4.845,32.535-9.096,48.75-13.565c-17.177-31.994-34.507-62.97-51.995-92.771
				C2987.647,1968.204,2970.42,1972.331,2952.821,1977.066z M2893.568,1884.141c19.337,29.074,38.602,59.392,57.814,90.576
				c17.566-4.746,34.804-8.951,52.093-13.226c-18.187-30.915-36.512-60.845-55.016-89.429
				C2930.292,1875.856,2912.066,1879.756,2893.568,1884.141z M2831.595,1794.443c20.179,27.865,40.283,57.196,60.348,87.29
				c18.449-4.403,36.674-8.392,54.806-12.21c-19.193-29.564-38.53-58.092-58.042-85.207
				C2869.834,1787.356,2850.834,1790.662,2831.595,1794.443z M2766.94,1708.807c20.994,26.416,41.914,54.396,62.795,83.15
				c19.177-3.799,38.154-7.204,56.964-10.279c-20.155-27.909-40.462-54.692-60.934-80.054
				C2806.342,1703.592,2786.763,1705.929,2766.94,1708.807z M2699.751,1628.125c21.733,24.701,43.407,50.972,65.036,78.096
				c19.73-2.908,39.251-5.353,58.586-7.371c-21.069-25.989-42.314-50.587-63.693-73.958
				C2739.899,1625.469,2719.961,1626.456,2699.751,1628.125z M2629.974,1553.296c22.466,22.835,44.896,46.771,67.263,72.094
				c20.109-1.719,39.979-2.834,59.679-3.484c-21.786-23.694-43.761-45.885-65.838-66.954
				C2670.904,1553.801,2650.57,1553.151,2629.974,1553.296z M2558.631,1485.1c22.892,20.604,45.766,42.147,68.582,65.233
				c20.347-0.218,40.454,0.288,60.39,1.319c-22.195-21.025-44.546-40.643-67.005-59.108
				C2600.125,1489.381,2579.496,1486.773,2558.631,1485.1z M2486.449,1424.314c22.94,18.063,45.863,37.059,68.737,57.524
				c20.378,1.534,40.532,3.915,60.532,6.858c-22.135-18.008-44.396-34.859-66.763-50.469
				C2528.271,1432.851,2507.467,1428.038,2486.449,1424.314z M2415.176,1372.087c22.269,15.179,44.531,31.12,66.76,48.479
				c19.914,3.392,39.634,7.777,59.247,12.653c-21.32-14.608-42.721-28.432-64.229-40.94
				C2456.478,1384.717,2435.89,1377.919,2415.176,1372.087z M2351.518,1331.888c18.856,11.14,37.71,22.442,56.549,35.088
				c17.649,4.783,35.146,10.707,52.626,16.74C2424.522,1363.581,2388.108,1346.451,2351.518,1331.888z M3080.538,2280.74
				c17.505,31.753,35.014,63.249,52.526,96.546c8.856-3.004,17.77-6.076,26.6-9.037c-15.712-33.206-31.444-66.145-47.266-97.854
				C3101.79,2273.825,3091.224,2277.195,3080.538,2280.74z M3025.075,2182.416c18.067,31.283,36.138,63.275,54.216,96.039
				c10.717-3.56,21.298-6.917,31.925-10.358c-16.491-33.01-32.99-65.87-49.61-97.013
				C3049.439,2174.849,3037.369,2178.47,3025.075,2182.416z M2967.906,2085.41c18.604,30.423,37.233,62.559,55.855,94.774
				c12.311-3.961,24.446-7.676,36.635-11.461c-17.649-33.012-35.415-64.306-53.193-95.376
				C2994.219,2077.183,2980.999,2081.401,2967.906,2085.41z M2907.352,1990.032c19.691,30.311,39.396,60.913,59.113,93.111
				c13.104-4.025,26.388-8.344,39.389-12.206c-18.412-32.122-36.897-63.083-55.434-93.19
				C2936.193,1981.62,2921.722,1985.916,2907.352,1990.032z M2844.38,1896.484c20.476,29.559,40.97,59.68,61.481,91.204
				c14.401-4.142,28.865-8.395,43.116-12.285c-19.25-31.21-38.56-61.538-57.937-90.628
				C2875.6,1888.465,2860.021,1892.419,2844.38,1896.484z M2779.098,1805.392c21.185,28.533,42.395,58.09,63.625,88.682
				c15.664-4.094,31.23-7.996,46.693-11.709c-20.122-30.13-40.285-59.468-60.525-87.362
				C2812.394,1798.259,2795.853,1801.611,2779.098,1805.392z M2711.539,1717.528c21.864,27.299,43.766,55.908,65.689,85.373
				c16.771-3.816,33.294-7.102,49.802-10.38c-20.959-28.802-41.96-56.8-63.035-83.251
				C2746.611,1711.794,2729.228,1714.295,2711.539,1717.528z M2641.856,1633.721c22.474,25.834,44.997,53.121,67.543,81.204
				c17.706-3.273,35.043-5.688,52.445-8.242c-21.729-27.188-43.504-53.499-65.344-78.249
				C2678.39,1629.924,2660.299,1631.341,2641.856,1633.721z M2570.406,1554.911c22.995,24.125,46.055,49.799,69.13,76.248
				c18.362-2.412,36.383-3.915,54.419-5.454c-22.439-25.328-44.936-49.489-67.471-72.319
				C2607.91,1553.529,2589.314,1553.717,2570.406,1554.911z M2496.967,1481.86c23.528,22.32,47.104,45.655,70.731,70.357
				c18.834-1.252,37.382-1.569,55.895-1.788c-22.979-23.17-46.018-44.896-69.078-65.545
				C2535.455,1483.399,2516.334,1482.124,2496.967,1481.86z M2422.887,1415.492c23.637,20.085,47.323,40.937,71.074,63.376
				c19.217,0.186,38.193,1.366,57.108,2.753c-23.215-20.667-46.483-39.83-69.762-58.021
				C2461.948,1420.292,2442.497,1417.468,2422.887,1415.492z M2349.2,1356.618c23.135,17.432,46.315,35.58,69.57,55.215
				c19.486,1.854,38.775,4.802,58.005,8.012c-23.078-17.871-46.19-34.316-69.307-49.848
				C2388.141,1364.802,2368.704,1360.444,2349.2,1356.618z M2277.7,1306.192c21.886,14.494,43.81,29.534,65.814,45.952
				c19.105,3.598,38.095,8.156,57.036,13.105c-22.183-14.682-44.385-28.152-66.583-40.752
				C2315.268,1317.506,2296.482,1311.816,2277.7,1306.192z M2213.961,1266.727c18.286,10.652,36.593,21.482,54.97,33.451
				c16.698,4.794,33.366,10.318,50.01,16.089C2283.942,1297.132,2248.938,1280.972,2213.961,1266.727z M3356.359,2839.641
				c-8.585-17.231-17.16-34.267-25.703-50.993c13.46,30.242,26.921,59.878,40.375,91.049
				C3366.138,2866.341,3361.267,2852.812,3356.359,2839.641z M2996.222,2192.038c19.521,30.856,39.063,61.964,58.72,94.357
				c7.457-2.516,14.746-4.794,22.14-7.224c-18.091-32.723-36.169-64.75-54.247-96.008
				C3014.024,2186.03,3005.056,2189.135,2996.222,2192.038z M2934.125,2095.963c20.181,30.615,40.408,61.784,60.718,93.857
				c8.865-2.915,17.846-6.011,26.681-8.89c-18.648-32.21-37.299-64.372-55.932-94.797
				C2955.145,2089.346,2944.645,2092.632,2934.125,2095.963z M2870.151,2000.638c20.723,29.956,41.593,61.419,62.473,93.071
				c10.553-3.355,21.055-6.617,31.527-9.845c-19.728-32.175-39.444-62.879-59.148-93.162
				C2893.393,1994.003,2881.889,1997.119,2870.151,2000.638z M2803.732,1907.236c21.504,29.473,43.097,59.801,64.78,91.095
				c11.797-3.553,23.336-6.648,35.006-9.972c-20.555-31.542-41.079-61.691-61.594-91.257
				C2829.236,1900.395,2816.563,1903.67,2803.732,1907.236z M2735,1816.055c22.295,28.868,44.627,58.123,67.108,88.89
				c12.8-3.571,25.489-6.945,38.152-10.256c-21.278-30.613-42.537-60.203-63.77-88.749
				C2762.769,1809.077,2748.869,1812.604,2735,1816.055z M2664.343,1727.291c22.853,27.837,45.799,56.592,68.859,86.407
				c13.823-3.459,27.728-7.094,41.413-10.253c-21.993-29.506-43.965-58.146-65.901-85.473
				C2694.074,1720.72,2679.144,1724.155,2664.343,1727.291z M2591.853,1641.684c23.373,26.615,46.877,54.484,70.47,83.17
				c14.783-3.154,29.689-6.628,44.313-9.413c-22.616-28.115-45.215-55.417-67.76-81.268
				C2623.345,1636.273,2607.563,1639.081,2591.853,1641.684z M2517.784,1560.04c23.791,25.164,47.749,51.782,71.778,79.092
				c15.723-2.641,31.477-5.371,47.015-7.499c-23.202-26.522-46.376-52.221-69.487-76.4
				C2550.796,1556.379,2534.274,1558.25,2517.784,1560.04z M2442.528,1483.221c24.053,23.435,48.294,48.471,72.598,74.104
				c16.489-1.835,32.966-3.608,49.251-4.789c-23.712-24.719-47.391-48.319-71.006-70.644
				C2476.558,1481.799,2459.534,1482.535,2442.528,1483.221z M2365.815,1412.062c24.385,21.702,48.888,44.271,73.549,68.221
				c17.068-0.751,34.105-1.369,50.982-1.32c-24.101-22.686-48.138-43.84-72.123-64.108
				C2400.874,1413.271,2383.334,1412.717,2365.815,1412.062z M2289.187,1347.324c24.25,19.542,48.595,39.749,73.129,61.49
				c17.483,0.574,34.94,1.305,52.257,2.796c-23.904-20.08-47.729-38.647-71.502-56.401
				C2325.191,1351.882,2307.194,1349.556,2289.187,1347.324z M2213.72,1289.824c23.548,17.018,47.194,34.706,71.021,53.791
				c17.691,2.084,35.373,4.256,52.941,7.363c-23.111-17.101-46.138-32.748-69.117-47.724
				C2250.322,1298.043,2232.023,1293.82,2213.72,1289.824z M2141.239,1240.461c22.031,14.167,44.146,28.899,66.428,44.858
				c17.391,3.654,34.793,7.222,52.13,11.919c-21.466-13.748-42.841-26.088-64.178-38.053
				C2177.48,1252.225,2159.358,1246.169,2141.239,1240.461z M2077.6,1201.789c18.041,10.339,36.143,21.065,54.363,32.596
				c15.288,4.629,30.574,9.075,45.878,14.532C2144.236,1230.822,2110.857,1215.641,2077.6,1201.789z M3276.552,2674.221
				c-7.728-12.902-15.461-25.825-23.176-38.648c15.43,28.823,30.97,59.105,46.494,89.186
				C3292.098,2707.708,3284.328,2690.947,3276.552,2674.221z M3325.129,2756.395c-12.276-21.091-24.49-41.784-36.687-62.359
				c9.285,20.152,18.559,41.593,27.844,62.217c10.981,21.302,21.93,42.202,32.938,63.897
				C3341.2,2798.79,3333.196,2777.251,3325.129,2756.395z M3373.703,2841.23c-13.563-23.803-27.155-47.798-40.618-70.943
				c8.533,22.226,16.943,45.871,25.424,68.671c12.074,23.955,24.217,48.887,36.342,73.587
				C3387.802,2888.762,3380.854,2864.39,3373.703,2841.23z M2909.921,2103.523c21.536,30.161,43.228,61.205,65.036,92.925
				c5.89-1.97,11.79-3.946,17.669-5.891c-20.327-32.03-40.585-63.295-60.786-93.88
				C2924.527,2098.967,2917.289,2101.138,2909.921,2103.523z M2841.368,2009.526c22.223,29.994,44.507,60.317,66.984,91.757
				c7.4-2.402,14.652-4.565,21.987-6.864c-20.905-31.635-41.805-63.15-62.556-93.106
				C2859.024,2003.965,2850.167,2006.798,2841.368,2009.526z M2771.431,1916.676c22.601,29.264,45.43,59.806,68.308,90.656
				c8.778-2.728,17.66-5.66,26.399-8.324c-21.668-31.235-43.268-61.673-64.765-91.088
				C2791.457,1910.722,2781.406,1913.774,2771.431,1916.676z M2699.362,1825.204c23.242,28.703,46.73,58.752,70.289,89.223
				c10.035-2.933,20.122-5.975,30.098-8.791c-22.518-30.776-44.894-60.078-67.222-88.947
				C2721.509,1819.439,2710.472,1822.243,2699.362,1825.204z M2624.668,1735.729c24.153,28.345,48.346,56.914,72.84,87.121
				c11.139-2.981,22.179-5.749,33.217-8.514c-23.115-29.836-46.116-58.638-69.023-86.483
				C2649.379,1730.432,2637.134,1732.798,2624.668,1735.729z M2548.758,1649.098c24.451,27.159,49.05,55.121,73.857,84.193
				c12.492-2.96,24.726-5.279,37.072-7.876c-23.67-28.721-47.246-56.638-70.694-83.274
				C2575.625,1644.337,2562.286,1646.455,2548.758,1649.098z M2471.672,1565.784c24.776,25.92,49.782,53.029,74.933,80.925
				c13.467-2.659,26.783-4.89,40.099-7.12c-24.136-27.368-48.195-54.04-72.09-79.239
				C2500.371,1561.917,2486.068,1563.687,2471.672,1565.784z M2393.53,1486.334c25.006,24.481,50.294,50.419,75.702,76.939
				c14.311-2.12,28.556-4.025,42.723-5.637c-24.459-25.728-48.851-50.818-73.046-74.32
				C2423.864,1483.975,2408.727,1485.034,2393.53,1486.334z M2314.746,1411.585c25.072,22.802,50.467,47.183,75.958,72.073
				c15.07-1.34,30.113-2.554,45.038-3.28c-24.755-23.966-49.385-46.829-73.864-68.529
				C2346.238,1411.338,2330.512,1411.336,2314.746,1411.585z M2235.062,1342.322c25.271,21.172,50.688,43.05,76.393,66.35
				c15.69-0.312,31.359-0.49,46.925-0.071c-24.837-21.919-49.478-42.283-74.021-61.947
				C2267.978,1344.722,2251.54,1343.353,2235.062,1342.322z M2156.149,1279.263c24.875,19.052,49.876,38.706,75.186,59.825
				c16.233,0.934,32.443,2.067,48.584,3.854c-24.352-19.387-48.508-37.334-72.565-54.574
				C2190.306,1284.783,2173.238,1281.812,2156.149,1279.263z M2079.106,1223.164c23.915,16.599,47.974,33.843,72.309,52.374
				c16.644,2.379,33.285,4.99,49.894,8.331c-23.36-16.581-46.531-31.818-69.607-46.429
				C2114.154,1232.1,2096.625,1227.351,2079.106,1223.164z M2005.855,1174.914c22.107,13.81,44.356,28.241,66.833,43.71
				c16.572,3.821,33.15,7.918,49.745,12.74c-21.51-13.4-42.834-25.566-64.091-37.312
				C2040.795,1187.13,2023.295,1180.683,2005.855,1174.914z M1942.51,1137.079c17.708,9.982,35.568,20.626,53.523,31.677
				c14.407,4.595,28.819,9.169,43.3,14.529C2006.751,1165.97,1974.485,1150.649,1942.51,1137.079z M3235.571,2587.753
				c-14.75-21.851-29.49-43.655-44.12-64.997c11.935,21.492,23.863,42.951,35.839,64.982c13.076,21.477,26.267,43.659,39.448,65.766
				C3256.349,2631.325,3245.958,2609.376,3235.571,2587.753z M3290.65,2669.545c-15.701-23.612-31.234-46.505-46.824-69.633
				c11.6,24.277,23.198,48.443,34.794,73.404c13.559,22.774,27.068,45.2,40.701,68.44
				C3309.797,2717.293,3300.233,2693.341,3290.65,2669.545z M3345.756,2754.079c-16.318-25.108-32.734-50.622-48.868-74.968
				c10.142,25.334,20.305,50.457,30.388,76.54c14.282,24.476,28.747,50.099,43.156,75.376
				C3362.299,2804.833,3354.018,2779.514,3345.756,2754.079z M3398.842,2835.517c-16.224-25.161-32.249-49.456-48.387-74.229
				c8.491,26.276,17.046,52.14,25.404,79.219c14.108,24.679,28.145,48.858,42.305,73.889
				C3411.88,2887.472,3405.324,2861.653,3398.842,2835.517z M2822.048,2015.721c23.246,29.188,46.879,59.898,70.514,90.628
				c4.53-1.491,9.021-2.916,13.518-4.358c-22.474-31.364-44.787-61.794-67.014-91.726
				C2833.414,2012.047,2827.704,2013.931,2822.048,2015.721z M2747.288,1923.735c24.221,29.412,48.479,58.966,73.07,89.813
				c5.682-1.806,11.403-3.684,17.083-5.475c-22.907-30.821-45.775-61.443-68.409-90.696
				C2761.796,1919.479,2754.573,1921.544,2747.288,1923.735z M2671.057,1832.564c24.58,28.79,49.433,58.641,74.399,88.931
				c7.306-2.206,14.543-4.26,21.801-6.368c-23.565-30.432-47.093-60.632-70.337-89.297
				C2688.291,1828.083,2679.765,1830.127,2671.057,1832.564z M2594.004,1743.507c24.748,27.786,49.968,57.386,75.154,86.859
				c8.703-2.445,17.28-4.609,25.906-6.884c-24.536-30.217-48.79-58.856-72.987-87.2
				C2612.781,1738.522,2603.344,1741.15,2594.004,1743.507z M2514.338,1656.564c25.729,27.604,51.474,55.258,77.678,84.652
				c9.307-2.364,18.758-5.089,28.027-7.356c-24.838-29.054-49.476-57.043-73.955-84.185
				C2535.562,1651.797,2524.924,1654.258,2514.338,1656.564z M2433.457,1571.982c26.003,26.547,52.196,53.803,78.691,82.192
				c10.607-2.325,21.246-4.75,31.785-6.886c-25.229-27.93-50.316-55.097-75.167-81.032
				C2457.046,1567.995,2445.269,1569.918,2433.457,1571.982z M2351.618,1490.456c26.182,25.323,52.677,51.784,79.379,79.01
				c11.827-2.092,23.596-3.963,35.327-5.723c-25.515-26.578-50.915-52.567-76.03-77.088
				C2377.438,1487.761,2364.58,1488.871,2351.618,1490.456z M2269.226,1412.753c26.213,23.873,52.825,49.192,79.576,75.014
				c12.971-1.623,25.81-2.664,38.667-3.791c-25.627-24.956-51.164-49.449-76.369-72.297
				C2297.171,1411.871,2283.262,1411.905,2269.226,1412.753z M2187.073,1339.968c25.999,22.153,52.441,45.869,78.999,69.994
				c13.974-0.898,27.811-0.955,41.678-1.196c-25.804-23.31-51.383-45.498-76.743-66.662
				C2216.388,1341.166,2201.773,1340.123,2187.073,1339.968z M2104.72,1272.654c26.066,20.624,52.292,41.785,78.931,64.417
				c14.595,0.091,29.107,0.952,43.63,1.798c-25.631-21.304-50.954-41.128-76.135-60.299
				C2135.684,1276.28,2120.214,1274.04,2104.72,1272.654z M2023.771,1211.309c25.415,18.536,50.994,37.624,76.97,58.105
				c15.24,1.285,30.465,3.286,45.677,5.428c-24.886-18.844-49.492-36.354-73.938-53.179
				C2056.232,1217.824,2039.986,1214.117,2023.771,1211.309z M1945.404,1156.652c24.206,16.157,48.6,32.959,73.341,50.909
				c15.754,2.63,31.532,5.982,47.321,9.565c-23.624-16.114-46.984-31.047-70.197-45.33
				C1979.006,1166.318,1962.153,1161.009,1945.404,1156.652z M1871.58,1109.546c22.111,13.425,44.439,27.571,67.012,42.52
				c15.76,3.968,31.597,8.63,47.461,13.576c-21.466-13.009-42.708-25.044-63.824-36.529
				C1905.287,1122.243,1888.337,1115.334,1871.58,1109.546z M1817.46,1077.199c14.37,8.072,29.114,17.356,43.687,26.078
				c13.583,4.532,27.258,9.57,40.972,14.859C1873.585,1103.178,1845.345,1089.461,1817.46,1077.199z M3064.856,2334.66
				c-8.494-10.764-16.998-21.581-25.498-32.357c19.624,26.969,39.665,55.647,59.653,84.092
				C3087.531,2368.576,3076.268,2352.077,3064.856,2334.66z M3105.753,2386.562c-8.008-10.264-15.844-20.001-23.852-30.27
				c6.873,10.571,13.664,20.636,20.566,31.387C3103.561,2387.311,3104.656,2386.94,3105.753,2386.562z M3129.26,2417.134
				c-7.273-9.449-14.639-19.188-21.86-28.488c-1.194,0.409-2.379,0.808-3.562,1.209c6.294,9.862,12.663,20.192,18.97,30.125
				c14.488,20.661,28.777,40.523,43.359,61.586C3153.831,2459.671,3141.537,2438.289,3129.26,2417.134z M3256.062,2584.608
				c-18.191-24.361-36.068-47.752-54.109-71.646c11.889,24.023,23.775,49.096,35.664,73.851
				c16.313,24.143,32.489,47.745,48.91,72.358C3276.392,2634.106,3266.263,2608.919,3256.062,2584.608z M3317.956,2669.175
				c-18.644-25.522-37.463-51.589-55.843-76.298c10.275,24.603,20.443,50.482,30.651,75.859
				c16.639,25.047,33.596,51.463,50.432,77.357C3334.794,2720.353,3326.48,2694.115,3317.956,2669.175z M3377.725,2750.844
				c-18.478-25.476-36.704-50.16-55.047-75.214c8.537,25.087,16.81,51.772,25.214,77.67c16.451,25.232,32.813,50.071,49.365,75.717
				C3390.753,2802.918,3384.422,2776.127,3377.725,2750.844z M3436.935,2834.019c-18.465-26.014-37.161-52.753-55.349-77.901
				c6.681,25.364,12.936,52.478,19.422,78.657c16.316,25.372,33.019,52.399,49.546,78.678
				C3446.001,2887.025,3441.762,2859.604,3436.935,2834.019z M3109.634,2387.885c3.395,4.354,6.832,8.819,10.247,13.216
				c-2.719-4.677-5.43-9.271-8.148-13.927L3109.634,2387.885z M3036.737,2295.384c4.381,5.571,8.721,11.03,13.113,16.642
				c-3.813-5.787-7.61-11.47-11.421-17.234C3037.867,2294.987,3037.294,2295.19,3036.737,2295.384z M2732.319,1928.11
				c25.072,28.544,50.801,59.044,76.402,89.168c3.12-1.006,6.242-2.004,9.357-2.999c-24.61-30.831-48.91-60.453-73.151-89.853
				C2740.721,1925.657,2736.561,1926.81,2732.319,1928.11z M2651.808,1838.337c26.046,28.748,52.056,57.386,78.581,87.56
				c4.272-1.316,8.465-2.471,12.704-3.71c-24.978-30.265-49.846-60.121-74.441-88.903
				C2663.062,1834.913,2657.393,1836.726,2651.808,1838.337z M2570.349,1749.72c26.241,28.052,52.771,56.945,79.502,86.433
				c5.608-1.623,11.292-3.431,16.904-5.066c-25.196-29.463-50.456-59.172-75.21-86.938
				C2584.5,1745.952,2577.419,1747.843,2570.349,1749.72z M2487.677,1662.348c26.451,27.228,53.529,56.261,80.54,85.11
				c7.103-1.889,14.199-3.763,21.265-5.579c-26.215-29.371-52.021-57.171-77.759-84.749
				C2503.716,1658.849,2495.742,1660.456,2487.677,1662.348z M2403.034,1577.292c27.181,26.842,54.524,54.141,82.296,82.699
				c8.128-1.924,16.143-3.509,24.204-5.248c-26.567-28.431-52.832-55.726-78.9-82.301
				C2421.442,1574.01,2412.292,1575.469,2403.034,1577.292z M2317.975,1495.26c27.308,25.79,54.811,52.143,82.733,79.69
				c9.2-1.833,18.327-3.423,27.466-5.025c-26.81-27.284-53.398-53.793-79.681-79.16
				C2338.363,1492.06,2328.156,1493.726,2317.975,1495.26z M2232.448,1416.236c27.295,24.557,54.974,50.19,82.912,76.539
				c10.103-1.543,20.262-3.356,30.318-4.702c-26.866-25.88-53.584-51.224-79.902-75.138
				C2254.71,1413.737,2243.552,1415.18,2232.448,1416.236z M2146.962,1340.986c27.103,23.094,54.741,47.666,82.503,72.597
				c11.104-1.095,22.251-2.456,33.32-3.302c-26.676-24.178-53.263-48.032-79.375-70.219
				C2171.288,1340.073,2159.118,1340.608,2146.962,1340.986z M2061.842,1270.297c26.816,21.515,54.139,44.417,81.631,67.79
				c12.14-0.427,24.282-0.879,36.392-0.919c-26.746-22.653-53.151-44.127-79.312-64.743
				C2087.659,1271.399,2074.749,1270.832,2061.842,1270.297z M1977.098,1204.798c26.676,20.022,53.475,40.356,80.846,62.256
				c12.883,0.476,25.767,1.138,38.635,2.128c-26.32-20.672-52.231-39.924-77.965-58.595
				C2004.762,1208.325,1990.923,1206.451,1977.098,1204.798z M1894.666,1145.25c25.579,17.849,51.352,36.215,77.598,55.833
				c13.758,1.559,27.535,3.545,41.319,5.758c-25.332-18.285-50.3-35.343-75.068-51.741
				C1923.865,1151.471,1909.242,1148.183,1894.666,1145.25z M1816.122,1092.5c23.786,15.345,47.83,31.368,72.219,48.281
				c14.405,2.789,28.878,6.186,43.368,9.735c-23.799-15.621-47.29-30.25-70.569-44.18
				C1846.078,1101.408,1831.061,1096.741,1816.122,1092.5z M1745.042,1048.14c20.386,12.127,41.136,25.199,61.977,38.515
				c14.471,3.956,29.081,8.661,43.698,13.42c-21.335-12.582-42.454-24.493-63.359-35.686
				C1773.165,1058.615,1759.077,1053.275,1745.042,1048.14z M1689.984,1016.408c12.945,7.181,26.13,14.966,39.262,22.629
				c12.147,4.245,24.49,9.281,36.783,14.116C1740.352,1039.878,1715.01,1027.646,1689.984,1016.408z M2933.438,2163.202
				c-12.354-14.001-24.416-27.296-36.674-41.059c21.443,25.961,42.964,52.148,64.623,78.754
				C2952.108,2188.485,2942.664,2175.4,2933.438,2163.202z M2965.14,2199.721c-4.193-4.814-8.463-9.806-12.63-14.552
				c3.695,4.92,7.438,10.047,11.152,15.042L2965.14,2199.721z M3008.561,2249.739c-13.933-16.132-27.796-32.083-41.617-47.94
				l-1.688,0.561c9.67,13.006,19.35,26.053,29.042,39.168c13.448,16.792,27.146,34.343,40.81,51.792
				c0.63-0.216,1.268-0.441,1.902-0.663C3027.509,2278.239,3017.992,2263.72,3008.561,2249.739z M3043.77,2290.295
				c-7.943-9.161-15.817-18.171-23.782-27.393c6.384,9.507,12.816,19.353,19.217,28.985
				C3040.735,2291.351,3042.261,2290.808,3043.77,2290.295z M3079.027,2331.272c-11.23-13.147-22.402-26.134-33.508-38.959
				c-1.614,0.546-3.258,1.13-4.893,1.712c8.743,13.155,17.474,26.197,26.259,39.617c13.788,17.645,27.358,34.638,41.103,52.163
				l2.455-0.832C3099.956,2366.924,3089.468,2348.791,3079.027,2331.272z M3121.055,2381.366
				c-11.161-13.344-22.411-26.907-33.388-39.802c8.303,13.989,16.635,28.404,24.96,42.664
				C3115.434,2383.276,3118.241,2382.324,3121.055,2381.366z M3286.881,2581.656c-21.038-25.913-42.356-52.524-63.066-77.627
				c11.478,26.278,22.959,52.539,34.369,79.731c18.799,25.238,38.101,52.014,57.185,78.133
				C3305.976,2634.532,3296.426,2608.079,3286.881,2581.656z M3353.27,2663.36c-20.841-25.839-41.405-50.995-62.067-76.388
				c9.672,26.878,19.376,53.537,28.893,81.377c18.627,25.425,37.166,50.559,55.928,76.421
				C3368.611,2716.914,3360.911,2690.266,3353.27,2663.36z M3418.894,2745.857c-20.699-26.101-41.602-52.7-61.984-78.018
				c7.7,27.241,15.507,54.004,22.979,82.21c18.402,25.425,37.271,52.307,55.943,78.573
				C3430.441,2800.227,3424.595,2773.268,3418.894,2745.857z M3483.407,2827.688c-20.456-25.966-41.035-52.235-61.325-77.792
				c5.726,27.69,11.664,54.728,17.068,83.416c18.29,25.684,36.752,51.924,55.154,77.951
				C3491.028,2882.51,3487.08,2855.437,3483.407,2827.688z M3125.023,2382.656c6.965,8.329,13.858,16.473,20.835,24.834
				c-4.604-8.882-9.217-18.354-13.819-27.217L3125.023,2382.656z M3081.023,2330.214c13.872,16.257,28.115,33.419,42.279,50.389
				l7.593-2.583c-17.531-33.279-35.049-64.838-52.57-96.566c-7.354,2.407-14.591,4.646-22.011,7.147
				C3064.526,2302.194,3072.792,2316.396,3081.023,2330.214z M3047.775,2291.529c8.174,9.39,16.329,18.732,24.613,28.388
				c-6.102-10.192-12.217-20.542-18.303-30.59C3051.992,2290.043,3049.854,2290.823,3047.775,2291.529z M3010.509,2248.598
				c11.875,13.73,23.698,27.332,35.51,40.912c2.221-0.754,4.478-1.564,6.718-2.346c-19.654-32.332-39.216-63.602-58.735-94.388
				c-5.826,1.925-11.685,3.898-17.527,5.843C2987.787,2215.083,2999.127,2231.743,3010.509,2248.598z M2969.216,2201.039
				c9.971,11.503,19.864,22.815,29.864,34.399c-8.325-12.274-16.569-24.08-24.853-36.07
				C2972.56,2199.924,2970.892,2200.48,2969.216,2201.039z M2935.353,2162.029c10.529,11.929,21.344,24.557,32.059,36.93
				c1.769-0.595,3.533-1.176,5.297-1.762c-21.797-31.629-43.53-62.895-65.057-92.964c-4.488,1.415-8.917,2.738-13.452,4.225
				C2907.905,2126.253,2921.525,2143.742,2935.353,2162.029z M2889.034,2110.229c9.04,10.015,18.067,19.996,27.19,30.196
				c-8.177-10.735-16.158-20.707-24.276-31.194C2890.975,2109.571,2889.996,2109.912,2889.034,2110.229z M2865.956,2084.605
				c7.094,7.897,14.173,15.761,21.239,23.585c1.03-0.343,2.07-0.704,3.113-1.067c-23.635-30.709-47.299-61.528-70.538-90.67
				c-3.074,0.983-6.147,1.973-9.221,2.958C2829.005,2041.099,2847.273,2062.237,2865.956,2084.605z M2807.995,2020.226
				c2.053,2.282,4.125,4.609,6.156,6.84c-1.985-2.333-3.948-4.613-5.92-6.914L2807.995,2020.226z M2724.687,1930.342
				c27,28.935,53.945,57.732,81.41,87.776l0.304-0.099c-25.625-30.159-51.313-60.513-76.448-89.216
				C2728.203,1929.307,2726.458,1929.794,2724.687,1930.342z M2641.126,1841.541c26.759,27.893,54.157,57.302,81.515,86.618
				c1.797-0.555,3.563-1.051,5.339-1.559c-26.556-30.276-52.504-58.743-78.557-87.547
				C2646.657,1839.877,2643.88,1840.733,2641.126,1841.541z M2555.321,1753.668c27.673,28.033,55.438,56.276,83.71,85.727
				c2.803-0.823,5.623-1.687,8.432-2.524c-26.807-29.613-53.313-58.326-79.626-86.491
				C2563.666,1751.467,2559.512,1752.523,2555.321,1753.668z M2468.205,1666.809c28.038,27.568,56.278,55.615,84.926,84.612
				c4.21-1.155,8.386-2.204,12.577-3.303c-27.105-28.983-54.172-57.854-80.706-85.192
				C2479.409,1664.204,2473.834,1665.42,2468.205,1666.809z M2381.11,1582.147c27.846,26.471,56.339,54.454,84.845,82.458
				c5.579-1.384,11.143-2.729,16.698-4.035c-27.776-28.584-55.099-55.843-82.274-82.691
				C2393.98,1579.219,2387.52,1580.788,2381.11,1582.147z M2292.387,1499.472c28.418,26.03,57.119,52.702,86.237,80.359
				c6.469-1.383,12.969-2.94,19.425-4.296c-28.025-27.657-55.561-53.915-82.96-79.802
				C2307.535,1496.902,2299.962,1498.177,2292.387,1499.472z M2202.676,1419.189c28.72,25.256,57.592,50.856,87.055,77.807
				c7.597-1.318,15.177-2.56,22.745-3.745c-28.069-26.477-55.81-52.037-83.229-76.698
				C2220.397,1417.374,2211.561,1418.102,2202.676,1419.189z M2113.028,1341.997c28.491,23.958,57.393,48.847,86.64,74.536
				c8.898-1.12,17.737-1.8,26.598-2.633c-27.947-25.087-55.683-49.596-82.958-72.823
				C2133.218,1341.319,2123.152,1341.332,2113.028,1341.997z M2024.851,1269.243c27.872,22.33,56.38,46.069,85.02,70.121
				c10.009-0.69,19.969-0.879,29.949-1.183c-27.601-23.453-55.077-46.539-81.985-68.11
				C2046.842,1269.619,2035.852,1269.261,2024.851,1269.243z M1937.438,1200.959c27.476,20.847,55.453,42.809,83.706,65.389
				c10.85-0.032,21.703,0.109,32.544,0.475c-27.57-22.027-54.609-42.593-81.469-62.703
				C1960.614,1202.797,1949.024,1201.821,1937.438,1200.959z M1851.193,1137.747c27.074,19.349,54.236,38.886,82.095,59.966
				c11.362,0.787,22.717,1.498,34.098,2.692c-26.753-19.954-52.976-38.472-79.036-56.574
				C1875.926,1141.455,1863.565,1139.618,1851.193,1137.747z M1768.148,1080.363c25.647,17.18,51.514,34.853,77.901,53.639
				c11.989,1.741,23.941,3.2,35.979,5.36c-25.334-17.493-50.237-33.843-74.924-49.634
				C1794.041,1086.198,1781.11,1083.349,1768.148,1080.363z M1690.194,1029.749c23.393,14.628,47.157,30.067,71.194,46.076
				c12.284,2.732,24.497,5.074,36.862,8.214c-23.237-14.717-46.168-28.655-68.833-41.899
				C1716.227,1037.562,1703.241,1033.778,1690.194,1029.749z M1622.187,988.001c19.053,11.13,38.775,23.693,58.274,35.776
				c11.983,3.575,23.917,6.983,35.985,10.883c-20.043-11.521-40.008-22.835-59.603-33.223
				C1645.147,996.516,1633.733,992.46,1622.187,988.001z M1563.501,955.49c13.902,7.6,27.754,15.093,41.903,23.205
				c8.555,3.169,17.138,6.412,25.719,9.652C1608.305,976.713,1585.708,965.618,1563.501,955.49z M3166.062,2485.358l-1.707,0.599
				c11.39,18.196,22.658,35.631,34.09,54.131c-6.885-12.462-13.789-25.179-20.66-37.461
				C3173.863,2496.815,3169.932,2490.952,3166.062,2485.358z M3177.87,2481.214c-2.586,0.887-5.216,1.828-7.82,2.746
				c3.249,5.776,6.524,11.918,9.779,17.734c16.386,23.792,32.973,48.433,49.535,72.961c-11.703-24.226-23.399-48.303-35.102-71.829
				C3188.799,2495.616,3183.327,2488.402,3177.87,2481.214z M3182.468,2479.597c-0.8,0.284-1.607,0.573-2.401,0.846l8.561,11.287
				C3186.576,2487.618,3184.521,2483.684,3182.468,2479.597z M3198.735,2473.957c-4.676,1.597-9.394,3.237-14.108,4.883
				c3.898,7.762,7.794,15.185,11.69,23.021c18.64,24.64,37.032,48.53,55.818,73.632c-11.158-26.469-22.365-52.336-33.593-77.924
				C3211.892,2489.579,3205.412,2482.011,3198.735,2473.957z M3207.163,2471.168c-2.051,0.676-4.09,1.336-6.167,2.042
				c4.886,5.897,9.667,11.531,14.497,17.277C3212.705,2484.162,3209.951,2477.438,3207.163,2471.168z M3241.133,2459.926
				c-10.607,3.521-21.099,6.897-31.792,10.524c3.771,8.484,7.497,17.547,11.261,26.132c21.023,25.455,42.708,52.549,64.074,78.855
				C3270.33,2535.874,3255.804,2497.435,3241.133,2459.926z M3285.913,2445.104c-14.123,4.613-28.34,9.344-42.574,14.092
				c15.398,39.391,30.62,79.902,45.659,121.555c20.889,25.661,41.707,51.151,62.781,77.269
				C3330.599,2583.76,3308.798,2512.129,3285.913,2445.104z M3339.775,2427.69c-17.09,5.416-34.345,11.043-51.614,16.67
				c23.39,68.579,45.646,142.001,67.257,218.14c20.57,25.537,41.61,52.242,62.491,78.54
				C3394.388,2628.563,3368.377,2523.936,3339.775,2427.69z M3404.003,2407.871c-20.537,6.249-41.112,12.521-61.946,19.116
				c28.974,97.61,55.281,203.828,79.038,318.098c20.417,25.692,41.156,52.184,61.756,78.333
				C3462.393,2670.026,3436.027,2531.577,3404.003,2407.871z M3478.341,2385.79c-23.779,6.872-47.773,13.999-71.985,21.355
				c32.275,124.876,58.783,264.761,79.296,419.822c15.922,20.197,31.597,39.782,47.758,60.581c4.469,5.747,8.88,11.355,13.31,17.013
				C3535.277,2707.385,3512.271,2534.645,3478.341,2385.79z M4280.215,2264.763c29.549,3.194,57.357,8.003,83.587,14.265
				c-36.707-26.906-80.802-46.783-130.919-60.771C4250.163,2232.233,4265.978,2247.702,4280.215,2264.763z M4179.577,2259.091
				c32.773,0.115,63.988,1.719,93.686,4.718c-15.313-17.745-32.291-33.802-50.904-48.199c-26.628-6.91-54.688-12.42-84.521-16.168
				C4153.396,2217.546,4167.38,2237.354,4179.577,2259.091z M4074.516,2263.374c34.54-2.541,68.051-4.077,100.002-4.134
				c-12.708-22.182-27.295-42.331-43.501-60.733c-29.298-3.484-59.828-5.744-92.035-6.317
				C4052.468,2214.017,4064.433,2237.611,4074.516,2263.374z M3966.215,2274.856c35.773-4.763,70.543-8.54,104.06-11.099
				c-10.354-26.024-22.647-49.817-36.484-71.804c-31.055-0.439-63.212,0.244-96.773,2.367
				C3948.29,2219.237,3957.896,2246.242,3966.215,2274.856z M3858.411,2291.867c35.703-6.427,70.516-11.958,104.353-16.521
				c-8.456-28.759-18.371-55.708-29.879-80.653c-32.168,2.137-65.464,5.444-99.687,9.727
				C3842.819,2231.908,3851.227,2261.053,3858.411,2291.867z M3754.15,2312.597c34.448-7.474,68.151-14.179,101.137-20.154
				c-7.263-30.849-15.712-60.076-25.458-87.538c-32.14,4.081-65.093,9.022-98.913,14.893
				C3739.701,2249.17,3747.48,2280.052,3754.15,2312.597z M3655.482,2335.394c32.531-8.016,64.391-15.327,95.793-22.163
				c-6.725-32.565-14.567-63.465-23.408-92.859c-31.134,5.439-62.792,11.439-95.253,18.321
				C3641.107,2269.465,3648.785,2301.607,3655.482,2335.394z M3564.006,2358.776c30.124-8.139,59.524-15.484,88.797-22.698
				c-6.736-33.81-14.455-65.967-22.994-96.747c-29.418,6.259-59.198,12.922-89.613,20.305
				C3548.843,2291.331,3556.846,2324.244,3564.006,2358.776z M3480.171,2382.512c27.278-7.887,54.551-15.761,81.242-23.003
				c-7.182-34.547-15.181-67.551-23.854-99.276c-27.065,6.609-54.813,13.996-82.586,21.421
				C3463.954,2313.991,3472.246,2347.849,3480.171,2382.512z M3405.7,2404.657c24.201-7.369,48.232-14.555,72.005-21.447
				c-7.949-34.688-16.289-68.523-25.294-100.891c-24.713,6.625-49.739,13.623-74.979,20.87
				C3387.266,2335.925,3396.662,2369.821,3405.7,2404.657z M3341.344,2424.5c20.876-6.612,41.431-12.853,62.003-19.115
				c-9.058-34.858-18.476-68.757-28.34-101.493c-21.891,6.275-43.619,12.354-65.908,19.113
				C3320.149,2355.853,3330.938,2389.546,3341.344,2424.5z M3287.308,2442.001c17.293-5.647,34.636-11.353,51.757-16.794
				c-10.424-34.97-21.233-68.663-32.304-101.516c-18.382,5.609-37.218,11.788-55.81,17.653
				C3263.29,2373.942,3275.454,2407.313,3287.308,2442.001z M3242.416,2456.85c14.269-4.764,28.493-9.482,42.651-14.108
				c-11.865-34.684-24.031-68.082-36.376-100.683c-15.465,4.873-30.815,9.604-46.457,14.694
				C3215.768,2389.23,3229.115,2422.878,3242.416,2456.85z M3208.335,2468.125c10.734-3.639,21.235-7.009,31.877-10.543
				c-13.318-33.987-26.683-67.619-40.233-100.114c-12.282,4.014-24.685,8.184-37.056,12.304
				C3178.111,2401.911,3193.276,2434.294,3208.335,2468.125z M3199.251,2471.131c2.328-0.792,4.611-1.526,6.911-2.285
				c-15.063-33.826-30.24-66.203-45.432-98.326c-8.804,2.953-17.698,6.028-26.525,9.019c6.027,11.574,12.057,23.948,18.091,35.624
				C3168.008,2433.961,3183.425,2452.046,3199.251,2471.131z M3183.508,2476.638c4.51-1.594,9.047-3.219,13.5-4.738
				c-13.579-16.373-26.812-31.893-40.29-48.027C3165.649,2441.274,3174.58,2458.867,3183.508,2476.638z M3178.511,2478.39
				c0.942-0.323,1.891-0.663,2.842-0.995c-10.358-20.603-20.719-41.074-31.073-61.198c-9.21-11.028-18.321-21.814-27.503-32.778
				l-8.865,3.013c5.802,9.919,11.596,19.697,17.402,29.747C3146.876,2436.386,3162.794,2457.703,3178.511,2478.39z M3168.85,2481.78
				c2.49-0.873,4.991-1.765,7.464-2.62c-11.86-15.609-23.823-31.542-35.616-46.95
				C3150.062,2448.456,3159.453,2465.087,3168.85,2481.78z M3163.017,2483.827l1.62-0.566c-6.709-9.699-13.338-19.072-20.013-28.64
				C3150.757,2464.371,3156.872,2474.018,3163.017,2483.827z M2103.168,2916c357.442-162.746,721.355-314.732,1057.678-431.411
				c-13.371-21.343-26.698-42.415-40.038-63.58c-7.051-10.01-14.042-19.796-21.082-29.755
				C2708.374,2526.174,2276.46,2715.764,1862,2916h-5.216c415.464-200.896,848.741-391.289,1241.432-526.876
				c-22-31.196-44.013-62.424-65.685-92.272c-441.998,151.015-939.382,381.459-1402.276,619.149h-4.805
				c463.65-238.247,962.245-469.497,1405.529-621.239c-13.056-17.96-25.834-34.807-38.777-52.303
				c-10.54-13.197-20.898-25.842-31.309-38.642c-487.485,164.316-1046.314,438.466-1547.31,712.184h-4.617
				c501.522-274.191,1061.46-549.162,1550.2-714.291c-24.831-30.568-49.522-60.708-73.982-90.158
				C2356.448,2286.415,1739.808,2607.99,1211.104,2916h-4.329c529.053-308.389,1146.721-630.797,1676.696-806.535
				c-6.375-7.676-12.936-15.904-19.291-23.508c-19.536-21.749-39.219-43.85-58.503-64.984
				C2239.496,2203.22,1568.96,2576.308,1023.33,2916h-4.163c545.773-339.981,1217.222-713.928,1784.608-897.14
				c-27.516-30.11-54.437-58.796-81.493-87.814C2121.534,2117.579,1400.87,2547.638,849.305,2916h-3.972
				c551.523-368.541,1272.99-799.482,1874.938-987.103c-27.402-29.376-54.762-58.649-81.581-86.628
				C2005.013,2028.846,1236.965,2522.728,689.919,2916h-3.758c546.832-393.315,1315.573-888.078,1950.435-1075.871
				c-28.309-29.519-56.07-57.721-83.774-85.806C1887.176,1936.71,1075.5,2502.914,544.503,2916h-3.583
				c530.61-412.997,1342.874-980.135,2009.709-1163.921c-28.69-29.067-56.892-56.978-84.967-84.587
				C1767.739,1840.533,916.289,2489.926,413.287,2916h-3.367c502.447-425.79,1354.383-1076.092,2053.493-1250.712
				c-28.589-28.091-57.091-55.99-85.02-82.537C1646.258,1739.53,758.838,2486.422,296.492,2916h-3.218
				c461.587-429.068,1349.339-1176.902,2082.635-1335.565c-29.167-27.706-57.915-54.436-86.365-80.493
				C1519.081,1633.517,600.91,2497.209,194.044,2916h-3.072c405.891-418.002,1324.307-1282.739,2095.912-1418.537
				c-29.586-27.065-58.516-52.615-87.353-77.964C1382.906,1521.743,439.226,2531.176,106.136,2916h-2.927
				c331.841-383.603,1275.596-1394.165,2093.319-1499.154c-29.319-25.738-58.221-50.526-86.775-74.526
				C1230.459,1402.532,263.227,2611.801,33.093,2916h-2.759c228.237-301.87,1195.655-1512.844,2076.262-1576.312
				c-28.827-24.191-57.452-47.905-85.507-70.351C1089.098,1271.617,140.797,2663.477,0,2878.155v-4.044
				c147.362-224.166,1089.864-1601.317,2017.385-1607.668c-28.364-22.642-56.522-44.828-84.095-65.714
				C992.656,1135.129,133.438,2562.749,0,2795.105v-4.451c139.347-241.978,993.438-1653.699,1929.139-1593.172
				c-28.2-21.304-55.637-40.927-83.024-60.444C887.258,997.414,124.453,2457.83,0,2710.656v-5.043
				c130.467-264.056,888.611-1705.199,1840.969-1572.319c-26.934-19.126-53.282-36.964-79.443-54.405
				C774.423,858.806,114.663,2344.535,0,2623.906v-5.873C120.207,2326.639,776.056,863.739,1754.773,1074.35
				c-25.061-16.614-49.732-32.374-74.095-47.484C654.441,720.319,102.986,2220.182,0,2533.126v-7.191
				C108.248,2199.47,656.765,728.269,1670.966,1020.902c-21.998-13.508-43.893-26.814-65.32-39.112
				C531.183,583.871,89.679,2074.9,0,2434.18v-9.296C94.261,2051.842,533.808,598.769,1588.872,972.492
				c-17.09-9.621-34.238-19.377-50.958-28.239C413.525,455.316,74.758,1888.648,0,2315.41v-13.076
				C78.203,1865.224,414.159,489.456,1497.416,923.711C332.578,338.666,61.728,1607.721,0,2135.753v-19.39
				C66.771,1570.311,350.844,312.649,1537.533,941.11c38.832,16.873,78.463,35.707,119.179,57.265
				c42.483,17.779,86.132,39.132,130.548,62.922c44.175,18.077,89.255,39.846,135.08,64.776
				c44.813,17.998,90.212,39.539,136.214,64.931c45.46,17.874,91.25,39.289,137.364,65.114
				c46.136,17.673,92.32,39.112,138.488,65.296c48.053,17.957,95.842,40.292,143.177,67.828c48,17.619,95.321,39.985,141.822,67.442
				c48.63,17.454,96.22,39.716,142.469,67.536c49.293,17.231,97.114,39.503,143.079,67.635
				c50.014,16.934,98.001,39.355,143.663,67.721c50.783,16.603,98.861,39.249,144.198,67.792
				c51.549,16.358,99.805,39.053,144.734,67.873c52.813,16.208,101.559,39.275,146.367,68.706
				c54.08,16.073,103.294,39.462,147.863,69.559c54.837,15.871,104.167,39.188,148.09,69.583
				c55.609,15.692,105.111,38.906,148.337,69.623c56.289,15.609,106.158,38.508,148.534,69.646
				c57.054,15.474,107.194,38.21,148.768,69.684c57.965,15.182,108.161,37.964,148.942,69.696
				c236.706,60.82,330.564,252.341,198.596,634.265h-3.301c128.541-373.786,39.706-564.299-188.124-627.904
				c128.913,106.713,159.957,306.213,54.306,627.904h-3.035c106.635-325.805,72.486-525.772-61.874-630.596
				c-27.192-6.998-56.168-12.371-87.016-16.004c99.901,124.244,116.722,331.98,21.285,646.6h-2.96
				c95.634-316.418,77.243-524.276-25.255-647.548c-30.209-3.365-61.795-5.444-95.284-5.726
				c75.621,138.32,82.625,350.139,0.035,653.274h-2.833c82.499-303.871,74.598-515.604-2.381-653.326
				c-32.083-0.097-65.871,1.415-100.614,3.867c56.914,148.466,58.387,360.623-10,649.459h-2.724
				c68.199-289.068,66.166-501.039,8.482-649.076c-33.725,2.48-68.778,6.239-104.816,10.972
				c44.28,154.906,44.57,364.419-9.044,638.104h-2.575c53.481-273.708,52.887-483.054,8.172-637.615
				c-33.875,4.51-68.743,10.002-104.503,16.391c36.352,158.225,38.344,362.979-0.77,621.223h-2.508
				c38.987-258.155,36.792-462.718,0.151-620.649c-33.003,5.936-66.732,12.599-101.215,20.042
				c32.205,159,37.878,357.575,12.625,600.607h-2.444c25.153-242.869,19.337-441.236-13.054-599.967
				c-31.418,6.805-63.282,14.07-95.833,22.06c30.981,157.83,41.687,349.423,29.428,577.907h-2.396
				c12.179-228.276,1.388-419.652-29.713-577.224c-29.239,7.186-58.615,14.506-88.71,22.611
				c31.938,155.269,48.416,339.723,48.208,554.612h-2.357c0.149-214.651-16.377-398.897-48.376-553.922
				c-26.659,7.215-53.976,15.157-81.218,23.014c34.079,149.882,57.097,323.933,68.433,522.691l6.425,8.217h-2.801l-3.406-4.357
				l0.245,4.357h-2.32l-0.444-7.577c-5.105-6.515-10.19-12.983-15.334-19.597c-15.363-19.774-30.264-38.386-45.397-57.584
				c3.66,27.868,7.595,55.048,10.855,83.926l0.588,0.833h-2.805l-0.02-0.162c-18.233-25.791-36.516-51.752-54.664-77.259
				c4.667,24.91,8.758,51.627,13.141,77.421h-3.765c-15.669-24.996-31.495-50.683-46.936-74.722
				c6.128,24.871,12.374,49.256,18.36,74.722h-4.414c-12.523-22.076-24.927-43.41-37.422-65.293
				c6.469,21.075,12.713,43.469,19.055,65.293h-4.086c-9.495-19.339-18.987-38.667-28.445-57.554
				c7.046,19.11,14.105,38.147,21.13,57.554h-3.041c-23.154-54.509-46.328-107.386-69.506-158.849
				c-29.796-57.731-59.502-114.247-89.042-168.564c-21.13-34.774-42.087-68.455-63.004-101.868
				c-334.909,116.021-697.372,267.233-1053.618,429.281H2103.168z"/>
		</defs>
		<clipPath id="SVGID_00000160874762647381164820000017970835744689975730_">
			<use xlink:href="#SVGID_1_"  style="overflow:visible;"/>
		</clipPath>
		
			<linearGradient id="SVGID_00000160170436542837145990000014656615300822030235_" gradientUnits="userSpaceOnUse" x1="395.3411" y1="1921.5791" x2="4065.9888" y2="1345.3258">
			<stop  offset="0" style="stop-color:#CC33FF"/>
			<stop  offset="1" style="stop-color:#FF6699"/>
		</linearGradient>
		
			<rect y="312.649" style="clip-path:url(#SVGID_00000160874762647381164820000017970835744689975730_);fill:url(#SVGID_00000160170436542837145990000014656615300822030235_);" width="4705.014" height="2603.351"/>
	</g>
</g>
</svg>
